<svg preserveAspectRatio="none" width="100%" height="100%" overflow="visible" style="display: block;" viewBox="0 0 48 48" fill="none" xmlns="http://www.w3.org/2000/svg">
<g id="Icon">
<path id="Vector" d="M43.28 7.28L40.72 4.72C40.495 4.49263 40.2271 4.31214 39.9319 4.18896C39.6366 4.06578 39.3199 4.00235 39 4.00235C38.6801 4.00235 38.3634 4.06578 38.0681 4.18896C37.7729 4.31214 37.505 4.49263 37.28 4.72L4.72 37.28C4.49263 37.505 4.31214 37.7729 4.18896 38.0681C4.06578 38.3634 4.00235 38.6801 4.00235 39C4.00235 39.3199 4.06578 39.6366 4.18896 39.9319C4.31214 40.2271 4.49263 40.495 4.72 40.72L7.28 43.28C7.50364 43.5098 7.77107 43.6925 8.06649 43.8172C8.36191 43.9419 8.67933 44.0062 9 44.0062C9.32067 44.0062 9.63809 43.9419 9.93351 43.8172C10.2289 43.6925 10.4964 43.5098 10.72 43.28L43.28 10.72C43.5098 10.4964 43.6925 10.2289 43.8172 9.93351C43.9419 9.63809 44.0062 9.32067 44.0062 9C44.0062 8.67933 43.9419 8.36191 43.8172 8.06649C43.6925 7.77107 43.5098 7.50364 43.28 7.28Z" stroke="var(--stroke-0, white)" stroke-width="4" stroke-linecap="round" stroke-linejoin="round"/>
<path id="Vector_2" d="M28 14L34 20" stroke="var(--stroke-0, white)" stroke-width="4" stroke-linecap="round" stroke-linejoin="round"/>
<path id="Vector_3" d="M10 12V20" stroke="var(--stroke-0, white)" stroke-width="4" stroke-linecap="round" stroke-linejoin="round"/>
<path id="Vector_4" d="M38 28V36" stroke="var(--stroke-0, white)" stroke-width="4" stroke-linecap="round" stroke-linejoin="round"/>
<path id="Vector_5" d="M20 4V8" stroke="var(--stroke-0, white)" stroke-width="4" stroke-linecap="round" stroke-linejoin="round"/>
<path id="Vector_6" d="M14 16H6" stroke="var(--stroke-0, white)" stroke-width="4" stroke-linecap="round" stroke-linejoin="round"/>
<path id="Vector_7" d="M42 32H34" stroke="var(--stroke-0, white)" stroke-width="4" stroke-linecap="round" stroke-linejoin="round"/>
<path id="Vector_8" d="M22 6H18" stroke="var(--stroke-0, white)" stroke-width="4" stroke-linecap="round" stroke-linejoin="round"/>
</g>
</svg>
