<svg preserveAspectRatio="none" width="100%" height="100%" overflow="visible" style="display: block;" viewBox="0 0 32 32" fill="none" xmlns="http://www.w3.org/2000/svg">
<g id="Icon">
<path id="Vector" d="M24 28C24 25.171 22.8762 22.4579 20.8758 20.4575C18.8754 18.4571 16.1623 17.3333 13.3333 17.3333C10.5044 17.3333 7.79125 18.4571 5.79086 20.4575C3.79047 22.4579 2.66667 25.171 2.66667 28" stroke="var(--stroke-0, white)" stroke-width="2.66667" stroke-linecap="round" stroke-linejoin="round"/>
<path id="Vector_2" d="M13.3333 17.3333C17.0152 17.3333 20 14.3486 20 10.6667C20 6.98477 17.0152 4 13.3333 4C9.65143 4 6.66667 6.98477 6.66667 10.6667C6.66667 14.3486 9.65143 17.3333 13.3333 17.3333Z" stroke="var(--stroke-0, white)" stroke-width="2.66667" stroke-linecap="round" stroke-linejoin="round"/>
<path id="Vector_3" d="M29.3333 26.6667C29.3333 22.1733 26.6667 18 24 16C24.8766 15.3424 25.5775 14.4788 26.0408 13.4857C26.504 12.4926 26.7153 11.4006 26.656 10.3064C26.5967 9.21218 26.2686 8.14945 25.7006 7.21227C25.1327 6.27508 24.3425 5.49235 23.4 4.93333" stroke="var(--stroke-0, white)" stroke-width="2.66667" stroke-linecap="round" stroke-linejoin="round"/>
</g>
</svg>
