<svg preserveAspectRatio="none" width="100%" height="100%" overflow="visible" style="display: block;" viewBox="0 0 28 28" fill="none" xmlns="http://www.w3.org/2000/svg">
<g id="Icon">
<path id="Vector" d="M25.13 17.5H19.8333C19.2145 17.5 18.621 17.7458 18.1834 18.1834C17.7458 18.621 17.5 19.2145 17.5 19.8333V25.13" stroke="var(--stroke-0, white)" stroke-width="2.33333" stroke-linecap="round" stroke-linejoin="round"/>
<path id="Vector_2" d="M8.16667 3.89667V5.83333C8.16667 6.76159 8.53542 7.65183 9.19179 8.30821C9.84817 8.96458 10.7384 9.33333 11.6667 9.33333C12.2855 9.33333 12.879 9.57917 13.3166 10.0168C13.7542 10.4543 14 11.0478 14 11.6667C14 12.95 15.05 14 16.3333 14C16.9522 14 17.5457 13.7542 17.9832 13.3166C18.4208 12.879 18.6667 12.2855 18.6667 11.6667C18.6667 10.3833 19.7167 9.33333 21 9.33333H24.6983" stroke="var(--stroke-0, white)" stroke-width="2.33333" stroke-linecap="round" stroke-linejoin="round"/>
<path id="Vector_3" d="M12.8333 25.6083V21C12.8333 20.3812 12.5875 19.7877 12.1499 19.3501C11.7123 18.9125 11.1188 18.6667 10.5 18.6667C9.88116 18.6667 9.28767 18.4208 8.85008 17.9832C8.4125 17.5457 8.16667 16.9522 8.16667 16.3333V15.1667C8.16667 14.5478 7.92083 13.9543 7.48325 13.5168C7.04566 13.0792 6.45217 12.8333 5.83333 12.8333H2.39167" stroke="var(--stroke-0, white)" stroke-width="2.33333" stroke-linecap="round" stroke-linejoin="round"/>
<path id="Vector_4" d="M14 25.6667C20.4433 25.6667 25.6667 20.4433 25.6667 14C25.6667 7.55668 20.4433 2.33333 14 2.33333C7.55668 2.33333 2.33333 7.55668 2.33333 14C2.33333 20.4433 7.55668 25.6667 14 25.6667Z" stroke="var(--stroke-0, white)" stroke-width="2.33333" stroke-linecap="round" stroke-linejoin="round"/>
</g>
</svg>
