<svg preserveAspectRatio="none" width="100%" height="100%" overflow="visible" style="display: block;" viewBox="0 0 28 28" fill="none" xmlns="http://www.w3.org/2000/svg">
<g id="Icon">
<path id="Vector" d="M16.3333 2.33333V7C16.3333 7.61884 16.5792 8.21233 17.0168 8.64992C17.4543 9.0875 18.0478 9.33333 18.6667 9.33333H23.3333" stroke="var(--stroke-0, white)" stroke-width="2.33333" stroke-linecap="round" stroke-linejoin="round"/>
<path id="Vector_2" d="M4.97933 24.5C5.18363 24.8538 5.47725 25.1478 5.83084 25.3526C6.18443 25.5573 6.58558 25.6656 6.99417 25.6667H21C21.6188 25.6667 22.2123 25.4208 22.6499 24.9832C23.0875 24.5457 23.3333 23.9522 23.3333 23.3333V8.16667L17.5 2.33333H7C6.38116 2.33333 5.78767 2.57917 5.35008 3.01675C4.9125 3.45434 4.66667 4.04783 4.66667 4.66667V8.16667" stroke="var(--stroke-0, white)" stroke-width="2.33333" stroke-linecap="round" stroke-linejoin="round"/>
<path id="Vector_3" d="M10.5 21L8.75 19.25" stroke="var(--stroke-0, white)" stroke-width="2.33333" stroke-linecap="round" stroke-linejoin="round"/>
<path id="Vector_4" d="M5.83333 19.8333C7.76633 19.8333 9.33333 18.2663 9.33333 16.3333C9.33333 14.4003 7.76633 12.8333 5.83333 12.8333C3.90034 12.8333 2.33333 14.4003 2.33333 16.3333C2.33333 18.2663 3.90034 19.8333 5.83333 19.8333Z" stroke="var(--stroke-0, white)" stroke-width="2.33333" stroke-linecap="round" stroke-linejoin="round"/>
</g>
</svg>
