<svg width="96" height="96" viewBox="0 0 96 96" fill="none" xmlns="http://www.w3.org/2000/svg">
  <defs>
    <clipPath id="avatar-chen-yue-clip">
      <circle cx="48" cy="48" r="48" />
    </clipPath>
    <linearGradient id="avatar-chen-yue-bg" x1="12" y1="12" x2="84" y2="88" gradientUnits="userSpaceOnUse">
      <stop stop-color="#FFF8F5" />
      <stop offset="1" stop-color="#F8E6F2" />
    </linearGradient>
    <radialGradient id="avatar-chen-yue-skin" cx="0" cy="0" r="1" gradientUnits="userSpaceOnUse" gradientTransform="translate(45 41) rotate(81) scale(35 27)">
      <stop stop-color="#F5D2B8" />
      <stop offset="0.62" stop-color="#E8B58E" />
      <stop offset="1" stop-color="#D59872" />
    </radialGradient>
  </defs>
  <g clip-path="url(#avatar-chen-yue-clip)">
    <rect width="96" height="96" fill="url(#avatar-chen-yue-bg)" />
    <path d="M19.5 96C24.1 79.8 34.8 70.2 48 70.2C61.2 70.2 71.9 79.8 76.5 96H19.5Z" fill="#9D174D" />
    <path d="M32 96C34.5 83.8 40.5 76.2 48 76.2C55.5 76.2 61.5 83.8 64 96H32Z" fill="#FFF7ED" />
    <path d="M40.6 69.2C42.9 72.9 45.3 74.7 48 74.7C50.7 74.7 53.1 72.9 55.4 69.2V62.2H40.6V69.2Z" fill="#D9A078" />
    <path d="M29.7 39.4C29.7 24.1 36.8 15.1 48 15.1C59.2 15.1 66.3 24.1 66.3 39.4V47.8C66.3 61.4 58.4 69.5 48 69.5C37.6 69.5 29.7 61.4 29.7 47.8V39.4Z" fill="url(#avatar-chen-yue-skin)" />
    <path d="M29.6 42.5C26.4 45.2 26.4 52.2 30.9 55.6C31.5 50.8 31.1 46.4 29.6 42.5Z" fill="#D19370" />
    <path d="M66.4 42.5C69.6 45.2 69.6 52.2 65.1 55.6C64.5 50.8 64.9 46.4 66.4 42.5Z" fill="#D19370" />
    <path d="M27.2 43.3C25.8 33.1 28.8 23.2 35.5 17.8C41.7 12.8 50 12 56.8 15.4C64.3 19.1 69 27 69 37.5V58.5C64.2 54.6 62.3 47.4 62.7 38.7C56.5 37.3 50.9 33.3 47.6 28.4C44 35.3 37.2 40.4 27.2 43.3Z" fill="#1F1822" />
    <path d="M36.6 40.7C39.9 39.2 43.1 39.4 45.5 41.2" stroke="#2A1F1E" stroke-width="2" stroke-linecap="round" />
    <path d="M50.5 41.2C53 39.4 56.2 39.2 59.4 40.7" stroke="#2A1F1E" stroke-width="2" stroke-linecap="round" />
    <path d="M38.8 46.2C41.2 44.7 43.9 44.8 46 46.2" stroke="#2C1A12" stroke-width="1.65" stroke-linecap="round" />
    <path d="M50 46.2C52.1 44.8 54.8 44.7 57.2 46.2" stroke="#2C1A12" stroke-width="1.65" stroke-linecap="round" />
    <path d="M48 47.2C47.7 51.4 46.6 54.5 45 56.5C47.3 57.3 49.6 57.2 51 56.3" stroke="#B5765E" stroke-width="1.55" stroke-linecap="round" stroke-linejoin="round" />
    <path d="M41.3 60.8C44.8 64 51.2 64 54.7 60.8" stroke="#A24B52" stroke-width="2" stroke-linecap="round" />
    <path d="M35.1 32.1C40.2 30.2 44.4 26.8 47.7 21.8C50.3 28.4 56.1 33.9 63.2 36.2C54.4 35.7 48.4 32.9 44.6 27.8C41.6 31.2 36.3 35 28.8 37.4C30.2 34.8 32.3 33.1 35.1 32.1Z" fill="#31232B" opacity="0.58" />
  </g>
</svg>
