<svg width="96" height="96" viewBox="0 0 96 96" fill="none" xmlns="http://www.w3.org/2000/svg">
  <defs>
    <clipPath id="avatar-li-ming-clip">
      <circle cx="48" cy="48" r="48" />
    </clipPath>
    <linearGradient id="avatar-li-ming-bg" x1="14" y1="10" x2="84" y2="88" gradientUnits="userSpaceOnUse">
      <stop stop-color="#F8FBFF" />
      <stop offset="1" stop-color="#DCEBFF" />
    </linearGradient>
    <radialGradient id="avatar-li-ming-skin" cx="0" cy="0" r="1" gradientUnits="userSpaceOnUse" gradientTransform="translate(45 39) rotate(79) scale(37 29)">
      <stop stop-color="#F6D3B8" />
      <stop offset="0.58" stop-color="#EAB88F" />
      <stop offset="1" stop-color="#DCA076" />
    </radialGradient>
  </defs>
  <g clip-path="url(#avatar-li-ming-clip)">
    <rect width="96" height="96" fill="url(#avatar-li-ming-bg)" />
    <path d="M19 96C23.2 79.9 34 70.5 48 70.5C62 70.5 72.8 79.9 77 96H19Z" fill="#153D6F" />
    <path d="M33.5 96C36 84.3 41.3 77.8 48 77.8C54.7 77.8 60 84.3 62.5 96H33.5Z" fill="#F8FAFC" />
    <path d="M40.8 70.5C43 73.6 45.4 75.2 48 75.2C50.6 75.2 53 73.6 55.2 70.5V62.9H40.8V70.5Z" fill="#DFA77F" />
    <path d="M29.4 37.2C29.4 23.2 36.8 14.8 48.1 14.8C59.3 14.8 66.8 23.2 66.8 37.2V47.8C66.8 61.2 58.8 69.7 48.1 69.7C37.4 69.7 29.4 61.2 29.4 47.8V37.2Z" fill="url(#avatar-li-ming-skin)" />
    <path d="M29.1 39.4C26.8 42 26.6 48.7 30.5 52.7C31.4 48.6 31.1 43.8 29.1 39.4Z" fill="#D79670" />
    <path d="M66.8 39.4C69.2 42 69.4 48.7 65.4 52.7C64.6 48.6 64.8 43.8 66.8 39.4Z" fill="#D79670" />
    <path d="M29.2 38C28.1 29.4 30.7 20.8 37.6 16.3C44.6 11.7 55.3 12.5 61.9 18.9C67.5 24.4 69 32.6 66.4 40.2C62.8 35.5 58.8 28.8 55 24.2C49.8 31 41.3 35.9 29.2 38Z" fill="#111827" />
    <path d="M36.2 39.6C39.4 37.8 42.7 37.7 45.2 39.2" stroke="#1F2937" stroke-width="2.2" stroke-linecap="round" />
    <path d="M51 39.2C53.8 37.7 57.1 37.9 60 39.6" stroke="#1F2937" stroke-width="2.2" stroke-linecap="round" />
    <path d="M38.8 44.9C41.1 43.2 44 43.2 46.2 44.9" stroke="#2F231E" stroke-width="1.7" stroke-linecap="round" />
    <path d="M51.8 44.9C54 43.2 56.9 43.2 59.2 44.9" stroke="#2F231E" stroke-width="1.7" stroke-linecap="round" />
    <path d="M48.6 45.8C47.8 50.4 46.7 53.4 45.3 55.1C47.5 56 49.7 55.9 51.3 55" stroke="#B77A5E" stroke-width="1.7" stroke-linecap="round" stroke-linejoin="round" />
    <path d="M41.8 59.7C45.1 62.7 50.9 62.7 54.2 59.7" stroke="#9F5A4F" stroke-width="2" stroke-linecap="round" />
    <path d="M34.4 30.8C42.8 31.3 52.6 26.8 57.1 20.7C53.2 30 43.4 36.1 30 38.4L34.4 30.8Z" fill="#1F2937" opacity="0.5" />
  </g>
</svg>
