<svg preserveAspectRatio="none" width="100%" height="100%" overflow="visible" style="display: block;" viewBox="0 0 64 64" fill="none" xmlns="http://www.w3.org/2000/svg">
<g id="Icon">
<path id="Vector" d="M57.44 40H45.3333C43.9188 40 42.5623 40.5619 41.5621 41.5621C40.5619 42.5623 40 43.9188 40 45.3333V57.44" stroke="var(--stroke-0, white)" stroke-width="5.33333" stroke-linecap="round" stroke-linejoin="round"/>
<path id="Vector_2" d="M18.6667 8.90667V13.3333C18.6667 15.4551 19.5095 17.4899 21.0098 18.9902C22.5101 20.4905 24.5449 21.3333 26.6667 21.3333C28.0812 21.3333 29.4377 21.8952 30.4379 22.8954C31.4381 23.8956 32 25.2522 32 26.6667C32 29.6 34.4 32 37.3333 32C38.7478 32 40.1044 31.4381 41.1046 30.4379C42.1048 29.4377 42.6667 28.0812 42.6667 26.6667C42.6667 23.7333 45.0667 21.3333 48 21.3333H56.4533" stroke="var(--stroke-0, white)" stroke-width="5.33333" stroke-linecap="round" stroke-linejoin="round"/>
<path id="Vector_3" d="M29.3333 58.5333V48C29.3333 46.5855 28.7714 45.229 27.7712 44.2288C26.771 43.2286 25.4145 42.6667 24 42.6667C22.5855 42.6667 21.229 42.1048 20.2288 41.1046C19.2286 40.1044 18.6667 38.7478 18.6667 37.3333V34.6667C18.6667 33.2522 18.1048 31.8956 17.1046 30.8954C16.1044 29.8952 14.7478 29.3333 13.3333 29.3333H5.46667" stroke="var(--stroke-0, white)" stroke-width="5.33333" stroke-linecap="round" stroke-linejoin="round"/>
<path id="Vector_4" d="M32 58.6667C46.7276 58.6667 58.6667 46.7276 58.6667 32C58.6667 17.2724 46.7276 5.33333 32 5.33333C17.2724 5.33333 5.33333 17.2724 5.33333 32C5.33333 46.7276 17.2724 58.6667 32 58.6667Z" stroke="var(--stroke-0, white)" stroke-width="5.33333" stroke-linecap="round" stroke-linejoin="round"/>
</g>
</svg>
