<svg preserveAspectRatio="none" width="100%" height="100%" overflow="visible" style="display: block;" viewBox="0 0 28 28" fill="none" xmlns="http://www.w3.org/2000/svg">
<g id="Icon">
<path id="Vector" d="M18.6667 15.1667L24.7602 19.229C24.848 19.2875 24.9501 19.321 25.0555 19.326C25.1609 19.3311 25.2656 19.3074 25.3587 19.2576C25.4517 19.2078 25.5295 19.1337 25.5837 19.0432C25.6379 18.9527 25.6666 18.8492 25.6667 18.7437V9.18167C25.6667 9.07903 25.6396 8.9782 25.5882 8.88936C25.5368 8.80051 25.4629 8.72681 25.3739 8.67568C25.2849 8.62455 25.184 8.59782 25.0814 8.59816C24.9787 8.59851 24.878 8.62594 24.7893 8.67767L18.6667 12.25" stroke="var(--stroke-0, white)" stroke-width="2.33333" stroke-linecap="round" stroke-linejoin="round"/>
<path id="Vector_2" d="M16.3333 7H4.66667C3.378 7 2.33333 8.04467 2.33333 9.33333V18.6667C2.33333 19.9553 3.378 21 4.66667 21H16.3333C17.622 21 18.6667 19.9553 18.6667 18.6667V9.33333C18.6667 8.04467 17.622 7 16.3333 7Z" stroke="var(--stroke-0, white)" stroke-width="2.33333" stroke-linecap="round" stroke-linejoin="round"/>
</g>
</svg>
